<?xml version="1.0" encoding="UTF-8" standalone="no"?>
<svg
   xmlns:dc="http://purl.org/dc/elements/1.1/"
   xmlns:cc="http://creativecommons.org/ns#"
   xmlns:rdf="http://www.w3.org/1999/02/22-rdf-syntax-ns#"
   xmlns:svg="http://www.w3.org/2000/svg"
   xmlns="http://www.w3.org/2000/svg"
   xmlns:sodipodi="http://sodipodi.sourceforge.net/DTD/sodipodi-0.dtd"
   xmlns:inkscape="http://www.inkscape.org/namespaces/inkscape"
   id="Layer_1_1_"
   style="enable-background:new 0 0 16 16;"
   version="1.1"
   viewBox="0 0 16 16"
   xml:space="preserve"
   sodipodi:docname="iconfinder_education-degree-course-university-college_2205242.svg"
   inkscape:version="1.0.1 (3bc2e813f5, 2020-09-07)"><metadata
     id="metadata11"><rdf:RDF><cc:Work
         rdf:about=""><dc:format>image/svg+xml</dc:format><dc:type
           rdf:resource="http://purl.org/dc/dcmitype/StillImage" /></cc:Work></rdf:RDF></metadata><defs
     id="defs9" /><sodipodi:namedview
     pagecolor="#ffffff"
     bordercolor="#666666"
     borderopacity="1"
     objecttolerance="10"
     gridtolerance="10"
     guidetolerance="10"
     inkscape:pageopacity="0"
     inkscape:pageshadow="2"
     inkscape:window-width="1998"
     inkscape:window-height="1401"
     id="namedview7"
     showgrid="false"
     inkscape:zoom="63"
     inkscape:cx="8"
     inkscape:cy="8"
     inkscape:window-x="-7"
     inkscape:window-y="0"
     inkscape:window-maximized="0"
     inkscape:current-layer="Layer_1_1_" /><polygon
     points="0,5 8,9 15,5.5 15,14 16,14 16,5 8,1 "
     id="polygon2" /><polygon
     points="3,7.059 3,11.5 8,14 13,11.5 13,7.059 8,9.559 "
     id="polygon4" /><path
     style="fill:#eeeeee;stroke-width:0.015873"
     d="m 15.007937,9.7460317 c 0,-2.3396825 -0.0036,-4.2539682 -0.008,-4.2539682 -0.0044,0 -1.581144,0.786603 -3.503936,1.7480068 L 8.0000649,8.9880771 4.0198737,6.9980322 C 1.8307686,5.9035073 0.03968254,5.0043929 0.03968254,5 c 0,-0.00439 1.79108096,-0.9035048 3.98017966,-1.9980265 l 3.9801799,-1.9900393 3.9960109,1.9979864 3.99601,1.9979865 V 9.5039535 14 H 15.5 15.007937 Z"
     id="path13" /><path
     style="fill:#eeeeee;stroke-width:0.015873"
     d="M 5.4960317,12.737208 3.0079365,11.492043 V 9.2857041 c 0,-1.2134864 0.00358,-2.206339 0.00796,-2.206339 0.00438,0 1.1275905,0.5598259 2.4960318,1.2440577 l 2.488072,1.2440577 2.4841267,-1.2431804 c 1.36627,-0.6837492 2.489484,-1.2435752 2.496032,-1.2440577 0.0065,-4.825e-4 0.0119,0.9919753 0.0119,2.2054619 V 11.492043 L 10.50002,12.738085 C 9.1293962,13.423408 8.0026105,13.983732 7.9960519,13.98325 7.9894932,13.982767 6.8644841,13.422048 5.4960317,12.737208 Z"
     id="path15" /></svg>
