<svg xmlns="http://www.w3.org/2000/svg" viewBox="0 0 16 16"><path d="M0 5l8 4 7-3.5V14h1V5L8 1z"/><path d="M3 7.059V11.5L8 14l5-2.5V7.059l-5 2.5z"/><path d="M15.008 9.746c0-2.34-.004-4.254-.008-4.254s-1.581.787-3.504 1.748L8 8.988l-3.98-1.99A699.198 699.198 0 01.04 5c0-.004 1.79-.904 3.98-1.998L8 1.012l3.996 1.998 3.996 1.998V14h-.984z" fill="#eee"/><path d="M5.496 12.737l-2.488-1.245V9.286c0-1.214.004-2.207.008-2.207s1.127.56 2.496 1.244L8 9.567l2.484-1.243c1.366-.683 2.49-1.243 2.496-1.244.007 0 .012.992.012 2.206v2.206L10.5 12.738c-1.37.685-2.497 1.246-2.504 1.245-.007 0-1.132-.561-2.5-1.246z" fill="#eee"/></svg>