<?xml version="1.0" encoding="UTF-8" standalone="no"?>
<svg
   xmlns:dc="http://purl.org/dc/elements/1.1/"
   xmlns:cc="http://creativecommons.org/ns#"
   xmlns:rdf="http://www.w3.org/1999/02/22-rdf-syntax-ns#"
   xmlns:svg="http://www.w3.org/2000/svg"
   xmlns="http://www.w3.org/2000/svg"
   xmlns:sodipodi="http://sodipodi.sourceforge.net/DTD/sodipodi-0.dtd"
   xmlns:inkscape="http://www.inkscape.org/namespaces/inkscape"
   height="1024"
   width="1024"
   version="1.1"
   id="svg32"
   sodipodi:docname="iconfinder_mark-github_298822.svg"
   inkscape:version="1.0.1 (3bc2e813f5, 2020-09-07)">
  <metadata
     id="metadata38">
    <rdf:RDF>
      <cc:Work
         rdf:about="">
        <dc:format>image/svg+xml</dc:format>
        <dc:type
           rdf:resource="http://purl.org/dc/dcmitype/StillImage" />
      </cc:Work>
    </rdf:RDF>
  </metadata>
  <defs
     id="defs36" />
  <sodipodi:namedview
     pagecolor="#ffffff"
     bordercolor="#666666"
     borderopacity="1"
     objecttolerance="10"
     gridtolerance="10"
     guidetolerance="10"
     inkscape:pageopacity="0"
     inkscape:pageshadow="2"
     inkscape:window-width="1998"
     inkscape:window-height="1401"
     id="namedview34"
     showgrid="false"
     inkscape:zoom="0.984375"
     inkscape:cx="512"
     inkscape:cy="512"
     inkscape:window-x="-7"
     inkscape:window-y="0"
     inkscape:window-maximized="0"
     inkscape:current-layer="svg32" />
  <path
     d="M512 0C229.25 0 0 229.25 0 512c0 226.25 146.688 418.125 350.156 485.812 25.594 4.688 34.938-11.125 34.938-24.625 0-12.188-0.469-52.562-0.719-95.312C242 908.812 211.906 817.5 211.906 817.5c-23.312-59.125-56.844-74.875-56.844-74.875-46.531-31.75 3.53-31.125 3.53-31.125 51.406 3.562 78.47 52.75 78.47 52.75 45.688 78.25 119.875 55.625 149 42.5 4.654-33 17.904-55.625 32.5-68.375C304.906 725.438 185.344 681.5 185.344 485.312c0-55.938 19.969-101.562 52.656-137.406-5.219-13-22.844-65.094 5.062-135.562 0 0 42.938-13.75 140.812 52.5 40.812-11.406 84.594-17.031 128.125-17.219 43.5 0.188 87.312 5.875 128.188 17.281 97.688-66.312 140.688-52.5 140.688-52.5 28 70.531 10.375 122.562 5.125 135.5 32.812 35.844 52.625 81.469 52.625 137.406 0 196.688-119.75 240-233.812 252.688 18.438 15.875 34.75 47 34.75 94.75 0 68.438-0.688 123.625-0.688 140.5 0 13.625 9.312 29.562 35.25 24.562C877.438 930 1024 738.125 1024 512 1024 229.25 794.75 0 512 0z"
     id="path30" />
  <path
     style="fill:#eeeeee;stroke:none;stroke-width:1.01587;fill-opacity:1"
     d="M 353.52381,997.56514 C 345.70745,996.4815 320.87111,986.95817 296.01906,975.51532 209.73572,935.78709 132.70076,868.15284 80.397846,786.20672 35.568464,715.96985 9.1639721,636.94224 2.036442,551.67415 0.68155327,535.46534 0.68098448,489.98335 2.0354566,472.88889 9.5069491,378.593 41.756283,290.2942 96.733809,213.60443 126.63222,171.89827 171.89827,126.63222 213.60443,96.733809 290.18117,41.837305 376.87984,10.106088 472.38095,2.0230776 c 16.36506,-1.38510284 62.87304,-1.38510284 79.2381,0 95.4698,8.0803594 182.22488,39.8322244 258.77652,94.7107314 42.19251,30.247071 86.92932,75.107481 117.55104,117.875831 54.39327,75.96932 86.57839,164.38574 94.01789,258.27925 1.3558,17.11047 1.3535,62.59142 0,78.78526 -10.1666,121.24156 -59.66794,230.53789 -143.23434,316.24508 -40.08633,41.11323 -81.08609,71.75919 -131.07644,97.97522 -25.63645,13.44433 -67.45768,30.57743 -78.47472,32.14912 -11.36604,1.62149 -22.27607,-3.68342 -26.97779,-13.11771 l -2.51295,-5.04241 -0.13467,-85.37029 c -0.13236,-83.91496 -0.17269,-85.5425 -2.36575,-95.47135 -5.44947,-24.67192 -14.43214,-43.68451 -26.50245,-56.09468 -4.39768,-4.52151 -4.0834,-5.42332 1.89001,-5.42332 5.27222,0 39.21537,-6.09554 53.48797,-9.60542 40.82392,-10.03929 73.08865,-25.44233 99.39695,-47.45167 39.95804,-33.42863 63.28328,-82.25854 71.25371,-149.16513 2.22806,-18.7032 2.52455,-62.05743 0.52105,-76.19048 -5.22027,-36.82453 -21.78817,-74.09065 -44.61304,-100.34788 -4.22285,-4.85788 -5.4105,-6.91758 -4.97895,-8.63493 0.3117,-1.24041 1.91892,-7.28386 3.57159,-13.42989 7.03734,-26.17075 7.08756,-59.21422 0.13493,-88.77007 -2.07048,-8.80171 -8.51547,-29.11213 -9.90546,-31.21561 -1.11933,-1.69392 -10.77573,-2.30919 -21.0632,-1.34207 -29.74365,2.79619 -72.13816,20.84061 -113.37968,48.25792 l -6.76763,4.49912 -14.59302,-3.51187 c -73.17404,-17.60962 -154.06378,-17.61986 -227.16189,-0.0288 l -14.47366,3.4831 -9.90729,-6.426 c -31.74748,-20.59181 -64.39256,-36.06636 -89.45155,-42.40216 -13.70852,-3.46601 -29.97575,-5.29899 -37.21165,-4.193 l -5.00987,0.76576 -3.77858,11.17199 c -7.64333,22.59872 -11.0923,43.12965 -11.08771,66.00249 0.004,17.84261 1.39086,29.44357 5.2269,43.70918 1.65267,6.14603 3.2532,12.15452 3.55673,13.35219 0.41313,1.63013 -1.03003,4.05639 -5.74039,9.65079 -20.7562,24.65177 -36.2808,57.65831 -42.0994,89.5067 -7.68269,42.05158 -2.93521,101.99107 11.56624,146.03001 27.9957,85.0191 93.48848,131.2133 207.44418,146.31719 l 8.78252,1.16405 -6.81065,8.48856 c -10.81554,13.48009 -18.33498,30.46576 -22.15607,50.04832 l -1.80467,9.24869 -8.12698,3.05876 c -19.42609,7.31139 -31.28196,9.59817 -49.77778,9.60122 -37.89243,0.006 -63.93125,-15.49243 -88.27863,-52.54467 -10.63211,-16.18012 -21.7831,-28.76948 -33.08603,-37.35383 -7.78046,-5.9091 -22.17473,-13.08034 -31.52423,-15.70541 -9.19968,-2.583 -26.17334,-2.6222 -32.7735,-0.0757 -5.3273,2.05539 -6.84555,4.00913 -6.84555,8.80907 0,4.4583 8.81402,13.47164 21.38081,21.86434 21.8307,14.57958 39.71545,37.78132 52.37773,67.94927 10.20028,24.30222 21.21658,38.129 40.9144,51.35249 29.64903,19.90392 73.2601,26.03802 122.31725,17.20451 6.13181,-1.10412 11.27765,-1.87686 11.43518,-1.71718 0.15754,0.15967 0.40531,22.69032 0.55061,50.06809 0.28619,53.92502 0.39962,52.6276 -5.30125,60.63375 -4.09633,5.75275 -15.37377,9.2864 -25.26203,7.91552 z"
     id="path863" />
</svg>
