<svg xmlns="http://www.w3.org/2000/svg" height="48" width="48"><path d="M512 0C229.25 0 0 229.25 0 512c0 226.25 146.688 418.125 350.156 485.812 25.594 4.688 34.938-11.125 34.938-24.625 0-12.188-.469-52.562-.719-95.312C242 908.812 211.906 817.5 211.906 817.5c-23.312-59.125-56.844-74.875-56.844-74.875-46.531-31.75 3.53-31.125 3.53-31.125 51.406 3.562 78.47 52.75 78.47 52.75 45.688 78.25 119.875 55.625 149 42.5 4.654-33 17.904-55.625 32.5-68.375-113.656-12.937-233.218-56.875-233.218-253.063 0-55.938 19.969-101.562 52.656-137.406-5.219-13-22.844-65.094 5.062-135.562 0 0 42.938-13.75 140.812 52.5 40.812-11.406 84.594-17.031 128.125-17.219 43.5.188 87.312 5.875 128.188 17.281 97.688-66.312 140.688-52.5 140.688-52.5 28 70.531 10.375 122.562 5.125 135.5 32.812 35.844 52.625 81.469 52.625 137.406 0 196.688-119.75 240-233.812 252.688 18.438 15.875 34.75 47 34.75 94.75 0 68.438-.688 123.625-.688 140.5 0 13.625 9.312 29.562 35.25 24.562C877.438 930 1024 738.125 1024 512 1024 229.25 794.75 0 512 0z"/><path d="M353.524 997.565c-7.817-1.084-32.653-10.607-57.505-22.05-86.283-39.728-163.318-107.362-215.621-189.308C35.568 715.97 9.164 636.942 2.036 551.674c-1.354-16.209-1.355-61.69 0-78.785 7.47-94.296 39.72-182.595 94.698-259.285 29.898-41.706 75.164-86.972 116.87-116.87 76.577-54.897 163.276-86.628 258.777-94.71 16.365-1.386 62.873-1.386 79.238 0 95.47 8.08 182.225 39.831 258.777 94.71 42.192 30.247 86.929 75.107 117.55 117.876 54.394 75.969 86.579 164.385 94.018 258.279 1.356 17.11 1.354 62.591 0 78.785-10.166 121.242-59.667 230.538-143.234 316.245-40.086 41.113-81.086 71.76-131.076 97.975-25.637 13.445-67.458 30.578-78.475 32.15-11.366 1.621-22.276-3.684-26.978-13.118l-2.513-5.043-.134-85.37c-.133-83.915-.173-85.542-2.366-95.471-5.45-24.672-14.432-43.685-26.503-56.095-4.397-4.521-4.083-5.423 1.89-5.423 5.273 0 39.216-6.096 53.488-9.606 40.824-10.039 73.089-25.442 99.397-47.451 39.958-33.429 63.284-82.259 71.254-149.165 2.228-18.704 2.525-62.058.521-76.19-5.22-36.825-21.788-74.092-44.613-100.349-4.223-4.858-5.41-6.917-4.979-8.635.312-1.24 1.919-7.284 3.572-13.43 7.037-26.17 7.087-59.214.135-88.77-2.07-8.801-8.516-29.112-9.906-31.215-1.12-1.694-10.776-2.31-21.063-1.342-29.744 2.796-72.138 20.84-113.38 48.258l-6.767 4.499-14.593-3.512c-73.174-17.61-154.064-17.62-227.162-.029l-14.474 3.483-9.907-6.426c-31.748-20.592-64.393-36.066-89.452-42.402-13.708-3.466-29.976-5.299-37.211-4.193l-5.01.766-3.779 11.172c-7.643 22.598-11.092 43.13-11.088 66.002.004 17.843 1.391 29.444 5.227 43.71 1.653 6.145 3.254 12.154 3.557 13.352.413 1.63-1.03 4.056-5.74 9.65-20.757 24.652-36.281 57.659-42.1 89.507-7.682 42.052-2.935 101.991 11.566 146.03 27.996 85.02 93.489 131.213 207.445 146.317l8.782 1.164-6.81 8.489c-10.816 13.48-18.335 30.466-22.157 50.048l-1.804 9.249-8.127 3.059c-19.426 7.311-31.282 9.598-49.778 9.6-37.892.007-63.931-15.492-88.279-52.544-10.632-16.18-21.783-28.77-33.086-37.354-7.78-5.909-22.174-13.08-31.524-15.705-9.2-2.583-26.173-2.622-32.773-.076-5.328 2.056-6.846 4.01-6.846 8.81 0 4.458 8.814 13.471 21.38 21.864 21.832 14.58 39.716 37.781 52.379 67.949 10.2 24.302 21.216 38.129 40.914 51.352 29.65 19.904 73.26 26.038 122.317 17.205 6.132-1.104 11.278-1.877 11.435-1.717.158.16.406 22.69.551 50.068.286 53.925.4 52.627-5.301 60.634-4.096 5.752-15.374 9.286-25.262 7.915z" fill="#eee"/></svg>