<svg xmlns="http://www.w3.org/2000/svg" height="48" width="48"><path d="M24 4c-7.73 0-14 6.27-14 14 0 10.5 14 26 14 26s14-15.5 14-26c0-7.73-6.27-14-14-14zm0 19c-2.76 0-5-2.24-5-5s2.24-5 5-5 5 2.24 5 5-2.24 5-5 5z"/><path d="M0 0h48v48H0z" fill="none"/><path d="M23.29 43.137c-4.225-4.953-7.888-10.28-10.194-14.827-1.654-3.261-2.574-5.939-2.962-8.62-.127-.881-.114-2.728.027-3.642.476-3.102 1.802-5.75 3.957-7.906 2.841-2.842 6.585-4.283 10.62-4.088 5.02.243 9.546 3.23 11.787 7.78 1.326 2.692 1.735 5.525 1.231 8.517-.82 4.86-4.09 11.181-9.514 18.387a106.17 106.17 0 01-4.083 5.042l-.162.185zm1.646-20.204a5 5 0 002.71-1.486 5.021 5.021 0 001.222-2.2c.11-.408.124-.552.124-1.247 0-.695-.015-.84-.124-1.248a4.987 4.987 0 00-1.441-2.41c-.931-.879-1.912-1.284-3.22-1.33-1.003-.034-1.707.11-2.49.513a5.092 5.092 0 00-2.585 3.227c-.11.409-.124.553-.124 1.248s.015.84.124 1.248c.503 1.884 2.002 3.302 3.892 3.681.421.084 1.48.087 1.912.004z" fill="#eee"/></svg>